<?xml version="1.0" encoding="utf-8"?><svg viewBox="0 0 371 59" xmlns="http://www.w3.org/2000/svg" xmlns:xlink="http://www.w3.org/1999/xlink"><style>:root>svg{display:none}:root>svg:target{display:block}</style><svg fill="none" viewBox="0 0 10 6" id="arrow-1" xmlns="http://www.w3.org/2000/svg"><path d="M1 1l4 4 4-4" stroke="currentColor" stroke-width="1.5" stroke-linecap="round" stroke-linejoin="round"/></svg><svg fill="none" viewBox="0 0 13 13" id="arrow-2" xmlns="http://www.w3.org/2000/svg"><path d="M8.793 4.31l.354-.354-.708-.707-.353.353.707.708zM2.811 8.877l-.353.354.707.707.353-.354-.707-.707zm5.275-5.275L2.81 8.877l.707.707L8.793 4.31l-.707-.708z" fill="currentColor"/><path d="M2.901 2.665h-.5v1h.5v-1zm6.33.5h.5v-.5h-.5v.5zm-.5 6.33v.5h1v-.5h-1zM2.9 3.664h6.33v-1H2.9v1zm5.83-.5v6.33h1v-6.33h-1z" fill="currentColor"/></svg><svg fill="none" viewBox="0 0 20 16" id="arrow-3" xmlns="http://www.w3.org/2000/svg"><path d="M18.75 8H1.25M8.25 15l-7-7 7-7" stroke="currentColor" stroke-width="2" stroke-miterlimit="10" stroke-linecap="round" stroke-linejoin="round"/></svg><svg fill="none" viewBox="0 0 40 50" id="badge" xmlns="http://www.w3.org/2000/svg"><path d="M24.667 8.666H34a4.68 4.68 0 014.667 4.667v30.334A4.68 4.68 0 0134 48.332H6a4.68 4.68 0 01-4.667-4.666V13.332A4.68 4.68 0 016 8.666h9.333" stroke="currentColor" stroke-width="1.5" stroke-linecap="round" stroke-linejoin="round"/><path d="M20 31.067a5.367 5.367 0 10-.001-10.734 5.367 5.367 0 000 10.734zM28.4 41.333c-.467-.933-.933-1.867-1.867-2.8a8.153 8.153 0 00-5.133-1.867h-3.033c-1.867 0-3.734.7-5.134 1.867-.7.7-1.4 1.633-1.866 2.8" stroke="currentColor" stroke-width="1.5" stroke-linecap="round" stroke-linejoin="round"/><path clip-rule="evenodd" d="M22.333 13.333h-4.666c-1.4 0-2.334-.933-2.334-2.333V4c0-1.4.934-2.333 2.334-2.333h4.666c1.4 0 2.334.933 2.334 2.333v7c0 1.4-.934 2.333-2.334 2.333z" stroke="currentColor" stroke-width="1.5" stroke-linecap="round" stroke-linejoin="round"/></svg><svg fill="none" viewBox="0 0 20 16" id="burger" xmlns="http://www.w3.org/2000/svg"><path d="M7 15H1M13.5 8H1M19 1H1" stroke="currentColor" stroke-width="2" stroke-linecap="round" stroke-linejoin="round"/></svg><svg fill="none" viewBox="0 0 20 19" id="business" xmlns="http://www.w3.org/2000/svg"><path d="M17 18H3c-1.1 0-2-.9-2-2V7c0-1.1.9-2 2-2h14c1.1 0 2 .9 2 2v9c0 1.1-.9 2-2 2zM14.2 5V3c0-1.1-.9-2-2-2H7.9c-1.1 0-2 .9-2 2v2" stroke="currentColor" stroke-width="1.5" stroke-miterlimit="10" stroke-linecap="round" stroke-linejoin="round"/><path d="M1 7l6.4 4.2c.3.2.7.3 1.1.3h3.1c.4 0 .8-.1 1.1-.3L19.1 7" stroke="currentColor" stroke-width="1.5" stroke-miterlimit="10" stroke-linecap="round" stroke-linejoin="round"/></svg><svg fill="none" viewBox="0 0 17 16" id="calculator" xmlns="http://www.w3.org/2000/svg"><path d="M13.889 15.25H2.61A1.616 1.616 0 011 13.639V2.36C1 1.475 1.725.75 2.611.75H13.89c.886 0 1.611.725 1.611 1.611V13.64c0 .886-.725 1.611-1.611 1.611zM11.07 7.194v8.056M5.833 15.25V7.194M1 7.194h14.5M15.5 11.222H1M5.833 3.972h4.834" stroke="currentColor" stroke-width="1.5" stroke-miterlimit="10" stroke-linecap="round" stroke-linejoin="round"/></svg><svg fill="none" viewBox="0 0 20 21" id="calendar" xmlns="http://www.w3.org/2000/svg"><path d="M14 1v4M6 1v4M1 8h18M17 3H3c-1.1 0-2 .9-2 2v13c0 1.1.9 2 2 2h14c1.1 0 2-.9 2-2V5c0-1.1-.9-2-2-2zM5 12h10M5 16h10" stroke="currentColor" stroke-width="1.5" stroke-miterlimit="10" stroke-linecap="round" stroke-linejoin="round"/></svg><svg fill="none" viewBox="0 0 44 44" id="camera" xmlns="http://www.w3.org/2000/svg"><path d="M11.5 1H6.133C3.333 1 .766 3.333.766 6.366v5.367M1 32.5v5.366c0 2.8 2.333 5.367 5.367 5.367h5.366M32.5 43h5.367c2.8 0 5.366-2.333 5.366-5.366v-5.368M43 11.5V6.134c0-2.8-2.333-5.368-5.367-5.368h-5.367M23.633 29.233H13.367c-1.634 0-3.034-1.4-3.034-3.034v-8.866c0-1.633 1.4-3.033 3.034-3.033h10.266c1.634 0 3.034 1.4 3.034 3.033v8.866c-.234 1.867-1.634 3.034-3.034 3.034z" stroke="currentColor" stroke-width="1.5" stroke-miterlimit="10" stroke-linecap="round" stroke-linejoin="round"/><path d="M26.433 23.4l4.9 3.966c.934.7 2.334 0 2.334-1.166v-8.4c0-1.166-1.4-1.866-2.334-1.166l-4.9 3.966" stroke="currentColor" stroke-width="1.5" stroke-miterlimit="10" stroke-linecap="round" stroke-linejoin="round"/></svg><svg fill="none" viewBox="0 0 50 40" id="car" xmlns="http://www.w3.org/2000/svg"><path d="M48.333 13l-6.066 2.333M7.733 15.333L1.667 13M39.7 24.666h-5.833M16.367 24.666h-5.834M42.267 15.334L40.4 6c-.467-2.8-3.033-4.667-5.6-4.667H15.667c-2.8 0-5.134 1.867-5.6 4.434l-2.334 9.567" stroke="#fff" stroke-width="1.5" stroke-linecap="round" stroke-linejoin="round"/><path d="M4.7 38.667h5.367c1.866 0 3.5-1.634 3.5-3.5v-2.334H36.9v2.334c0 1.866 1.633 3.5 3.5 3.5h5.367c1.633 0 3.033-1.4 3.033-3.033V22.1c0-3.967-3.033-7-7-7H9.133c-3.966 0-7 3.033-7 7v13.534c-.466 1.633.934 3.033 2.567 3.033z" stroke="#fff" stroke-width="1.5" stroke-linecap="round" stroke-linejoin="round"/></svg><svg fill="none" viewBox="0 0 13 11" id="check" xmlns="http://www.w3.org/2000/svg"><path d="M10.15 1.35c.6-.6 1.5-.6 2.1 0 .6.6.6 1.5 0 2l-6.3 6.3c-.6.6-1.5.6-2.1 0l-3.1-3.1c-.6-.6-.6-1.5 0-2.1.6-.6 1.5-.6 2.1 0l2.1 2.1 5.2-5.2z" fill="#F5C519"/></svg><svg fill="none" viewBox="0 0 18 20" id="clip" xmlns="http://www.w3.org/2000/svg"><path d="M10.9 6.4l-5.5 5.5c-.8.8-.8 2.2 0 3 .8.8 2.2.8 3 0l7.2-7.2c1.5-1.5 1.5-4 0-5.5s-4-1.5-5.5 0L2.9 9.4c-2.2 2.2-2.2 5.8 0 8s5.8 2.2 8 0l4.4-4.4" stroke="currentColor" stroke-width="1.5" stroke-linecap="round" stroke-linejoin="round"/></svg><svg fill="none" viewBox="0 0 44 44" id="clock" xmlns="http://www.w3.org/2000/svg"><path d="M32.733 31.333L21.3 24.567V9.633" stroke="currentColor" stroke-width="1.5" stroke-linecap="round" stroke-linejoin="round"/><path d="M22 43c11.598 0 21-9.402 21-21S33.598 1 22 1 1 10.402 1 22s9.402 21 21 21z" stroke="currentColor" stroke-width="1.5" stroke-linecap="round" stroke-linejoin="round"/></svg><svg fill="none" viewBox="0 0 21 21" id="clock-2" xmlns="http://www.w3.org/2000/svg"><path d="M18.436 18.254l-2.3-2.2M4.737 16.054l-2.3 2.2M17.844 13.514A8 8 0 103.062 7.391a8 8 0 0014.782 6.123zM1.837 3.254l3-2.5M19.037 3.254l-3-2.5" stroke="currentColor" stroke-width="1.5" stroke-miterlimit="10" stroke-linecap="round" stroke-linejoin="round"/><path d="M10.237 6.854v4.2l3.2 1.9" stroke="currentColor" stroke-width="1.5" stroke-miterlimit="10" stroke-linecap="round" stroke-linejoin="round"/></svg><svg fill="none" viewBox="0 0 23 23" id="close" xmlns="http://www.w3.org/2000/svg"><path d="M1 1l20.6 20.6M21.6 1L1 21.6" stroke="currentColor" stroke-width="2" stroke-linecap="round" stroke-linejoin="round"/></svg><svg fill="none" viewBox="0 0 47 59" id="contract" xmlns="http://www.w3.org/2000/svg"><path d="M43.5 12l-8.75-8.75C33.5 2 31.937 1.375 30.375 1.375h-22.5c-3.438 0-6.25 2.813-6.25 6.25v43.75c0 3.438 2.813 6.25 6.25 6.25h31.25c3.438 0 6.25-2.813 6.25-6.25v-35c0-1.563-.625-3.125-1.875-4.375z" stroke="#fff" stroke-width="2" stroke-miterlimit="10" stroke-linecap="round" stroke-linejoin="round"/><path d="M45.375 17h-12.5C31 17 29.75 15.75 29.75 13.875v-12.5M11 26.375h18.75M11 35.75h18.75M11 45.125h13.75" stroke="#fff" stroke-width="2" stroke-miterlimit="10" stroke-linecap="round" stroke-linejoin="round"/></svg><svg fill="none" viewBox="0 0 38 44" id="doc" xmlns="http://www.w3.org/2000/svg"><path d="M34.334 22v-9.8c0-1.167-.467-2.334-1.4-3.267L26.4 2.4c-.933-.933-2.1-1.4-3.266-1.4h-16.8a4.68 4.68 0 00-4.667 4.667v32.666A4.68 4.68 0 006.334 43H18M8.667 15h18.667M8.667 22h18.667M8.667 29h4.667" stroke="#fff" stroke-width="1.5" stroke-miterlimit="10" stroke-linecap="round" stroke-linejoin="round"/><path d="M30.833 42.999s5.834-2.8 5.834-7v-4.9l-4.2-1.633c-.934-.467-2.1-.467-3.267 0L25 31.099v4.9c0 4.2 5.833 7 5.833 7z" stroke="#fff" stroke-width="1.5" stroke-miterlimit="10" stroke-linecap="round" stroke-linejoin="round"/></svg><svg fill="none" viewBox="0 0 38 44" id="fire" xmlns="http://www.w3.org/2000/svg"><path d="M11.767 18.033c-1.634-1.867-1.867-5.133-2.1-6.3 0-.233-.234-.466-.467-.233-4.433 2.567-8.4 8.4-8.4 14 0 9.567 6.767 17.733 18.2 17.733 10.733 0 18.2-8.4 18.2-17.733 0-12.367-8.867-20.533-16.567-24.266-.233 0-.466 0-.466.233 1.166 6.533-.234 13.766-8.4 16.566z" stroke="currentColor" stroke-width="1.5" stroke-miterlimit="10" stroke-linecap="round" stroke-linejoin="round"/></svg><svg fill="none" viewBox="0 0 57 59" id="flag" xmlns="http://www.w3.org/2000/svg"><path d="M21.25 32.625l1.563 5C23.75 40.125 25.938 42 28.75 42h20.625c3.438 0 6.25-2.813 6.25-6.25V17.625c0-3.437-2.812-6.25-6.25-6.25H34.063" stroke="currentColor" stroke-width="2" stroke-miterlimit="10" stroke-linecap="round" stroke-linejoin="round"/><path d="M18.125 57.625L2.188 9.5C.938 5.438 3.75 1.375 8.125 1.375h19.688c3.437 0 6.25 2.813 6.25 6.25v18.75c0 3.438-2.813 6.25-6.25 6.25H10" stroke="currentColor" stroke-width="2" stroke-miterlimit="10" stroke-linecap="round" stroke-linejoin="round"/></svg><svg fill="none" viewBox="0 0 20 18" id="individuals" xmlns="http://www.w3.org/2000/svg"><path d="M3.9 17c1.6-1.5 3.7-2.5 6.1-2.5 2.3 0 4.5.9 6.1 2.5M10 11.5a3 3 0 100-6 3 3 0 000 6z" stroke="currentColor" stroke-width="1.5" stroke-linecap="round" stroke-linejoin="round"/><path d="M2 14c-.6-1.2-1-2.6-1-4 0-5 4-9 9-9s9 4 9 9c0 1.4-.4 2.8-1 4" stroke="currentColor" stroke-width="1.5" stroke-linecap="round" stroke-linejoin="round"/></svg><svg fill="none" viewBox="0 0 16 20" id="location" xmlns="http://www.w3.org/2000/svg"><path d="M8 11c-1.7 0-3-1.3-3-3s1.3-3 3-3 3 1.3 3 3-1.3 3-3 3z" stroke="currentColor" stroke-width="1.5" stroke-linecap="round" stroke-linejoin="round"/><path d="M8 19S1 13.2 1 8c0-3.9 3.1-7 7-7s7 3.1 7 7c0 5.3-7 11-7 11z" stroke="currentColor" stroke-width="1.5" stroke-miterlimit="10" stroke-linecap="round" stroke-linejoin="round"/></svg><svg fill="none" viewBox="0 0 10 14" id="location-2" xmlns="http://www.w3.org/2000/svg"><path d="M5 3.736c-.899 0-1.685.713-1.685 1.646 0 .932.73 1.645 1.685 1.645.899 0 1.685-.713 1.685-1.645 0-.933-.786-1.646-1.685-1.646zm0 4.827c-1.854 0-3.315-1.426-3.315-3.236 0-1.81 1.461-3.236 3.315-3.236 1.854 0 3.315 1.426 3.315 3.236 0 1.81-1.461 3.236-3.315 3.236zM5 .5C2.247.5 0 2.694 0 5.382 0 8.07 5 13.5 5 13.5s5-5.43 5-8.118C10 2.694 7.753.5 5 .5z" fill="#F5C519"/></svg><svg fill="none" viewBox="0 0 28 29" id="man" xmlns="http://www.w3.org/2000/svg"><path fill-rule="evenodd" clip-rule="evenodd" d="M11.213.1a1.475 1.475 0 01-.381.089c-.243.005-1.152.493-1.589.85-.67.552-1.095 1.165-1.41 2.04-.14.386-.15.537-.183 2.46l-.034 2.05-.34.02-.34.02V9.09c0 1.287.015 1.513.13 1.882.183.585.552 1.028 1.047 1.26l.39.182.248.734c.42 1.236 1.083 2.384 1.747 3.023.3.288.329.341.3.538-.053.344-.356.896-.645 1.174-.337.322-.676.49-1.573.775-1.906.608-3.928 1.407-5.048 1.997-1.605.846-2.586 1.81-3.128 3.077C.04 24.583 0 24.908 0 26.992v1.892H1.167v-1.783c0-1.568.015-1.842.128-2.28.281-1.085.925-1.956 1.96-2.651.416-.28 1.815-.965 2.715-1.329 1.075-.435 2.328-.865 2.397-.823.033.02.343.388.688.817.57.707 2.603 3.238 2.657 3.306.012.016.161-.107.331-.272.17-.165.34-.3.377-.3.037 0 .104.068.15.151.09.167-.025.781-.806 4.332-.081.37-.141.68-.133.689.008.01.268.071.577.138l.561.121.034-.138c.02-.076.061-.282.094-.458.058-.315.558-2.648.726-3.388l.086-.378h.582l.146.666c.08.367.218.969.307 1.339.088.37.226 1.029.305 1.464.094.52.175.803.235.826.083.032 1.035-.142 1.093-.199.014-.013-.005-.1-.04-.195a4.137 4.137 0 01-.135-.6c-.037-.238-.109-.604-.159-.816-.05-.211-.226-1.03-.393-1.818-.24-1.14-.287-1.465-.232-1.585.1-.216.19-.19.539.15.17.164.319.287.331.271l1.153-1.437 1.598-1.992c.257-.32.508-.617.558-.658.223-.183 4.084 1.403 5.148 2.115.742.497 1.294 1.107 1.642 1.816.394.801.444 1.154.445 3.154l.001 1.745H28l-.001-1.873c-.001-2.06-.038-2.365-.386-3.223-.52-1.284-1.511-2.271-3.145-3.132-1.12-.59-3.142-1.39-5.048-1.997-.897-.286-1.236-.453-1.573-.775-.289-.278-.592-.83-.644-1.174-.03-.197 0-.25.3-.538.664-.64 1.327-1.787 1.746-3.024l.25-.736.324-.148c.388-.178.791-.572.968-.945.223-.472.274-.905.274-2.32v-1.37l-.34-.02-.34-.02-.033-2.305-.033-2.306-.172-.363c-.191-.404-.602-.878-.937-1.083l-.22-.133V0l-3.775.008c-2.96.006-3.824.026-4.002.092zm6.578 1.357c-.106.78-.932 1.846-1.626 2.1a2.303 2.303 0 00-.409.185c-.059.044-.888.08-2.366.1-2.527.036-2.444.022-2.903.492-.334.342-.44.633-.44 1.204v.482h1.166v-.324c0-.32.08-.56.22-.651.04-.026.961-.048 2.049-.05 2.217-.002 2.49-.037 3.287-.425.595-.29 1.193-.833 1.603-1.455l.322-.487.172.162c.302.287.32.464.32 3.318v2.666h.647v.9c0 .78-.017.932-.133 1.157-.16.308-.43.441-.902.441-.295 0-.326.014-.326.144 0 .253-.322 1.343-.563 1.905-.378.884-.79 1.525-1.316 2.053-.506.506-.859.735-1.44.935-.51.176-1.883.16-2.4-.027-1.094-.397-1.994-1.401-2.668-2.975-.23-.535-.557-1.662-.557-1.915 0-.102-.051-.12-.34-.12-.457 0-.762-.159-.923-.48-.109-.217-.129-.39-.13-1.121v-.865l.34-.02.34-.019V6.413c0-2.163.01-2.394.132-2.852.145-.548.202-.655.658-1.232.298-.376.866-.784 1.381-.991.362-.145.837-.167 3.844-.176l3.002-.01-.041.305zm-3.823 16.12c.985.003 1.153-.013 1.588-.148.267-.083.5-.151.516-.15.017 0 .081.12.143.263l.113.262-1.144 1.25c-.63.686-1.162 1.248-1.185 1.248-.022 0-.283-.266-.58-.592-.298-.326-.792-.862-1.098-1.192-.306-.33-.575-.632-.598-.672-.022-.04.011-.192.075-.337l.115-.263.476.164c.436.149.571.163 1.579.167zm-2.098 2.197c.481.52.968 1.049 1.08 1.176l.206.232-.63.612c-.345.337-.65.599-.678.582-.044-.027-.661-.784-1.892-2.318-.207-.258-.366-.477-.354-.487.013-.01.156-.068.32-.128.162-.06.44-.221.615-.357.176-.135.35-.249.388-.252.038-.002.463.42.944.94zm5.575-.693c.185.138.47.301.633.361.163.06.307.119.32.129.012.01-.147.229-.354.487-1.23 1.535-1.848 2.291-1.892 2.318-.028.017-.333-.245-.679-.582l-.629-.612.206-.232c.64-.723 1.964-2.12 2.007-2.12.028 0 .203.113.388.251zm-3.07 3.29c.15.15.273.302.273.336 0 .09-.442.69-.553.752a.218.218 0 01-.19 0c-.111-.062-.553-.663-.553-.752 0-.104.538-.611.648-.611.056 0 .225.123.375.274zM3.89 27.603v1.28H5.056v-2.561H3.889v1.28zm19.055 0v1.28H24.111v-2.561H22.944v1.28z" fill="#F5C519"/></svg><svg fill="none" viewBox="0 0 70 54" id="people" xmlns="http://www.w3.org/2000/svg"><path d="M35 37.673a8.335 8.335 0 100-16.67 8.335 8.335 0 000 16.67zM53.336 17.67a8.335 8.335 0 100-16.67 8.335 8.335 0 000 16.67zM55.003 27.671c5.001 0 10.002 1.668 13.336 4.335M16.664 17.67a8.335 8.335 0 100-16.67 8.335 8.335 0 000 16.67zM1.661 32.006c3.334-2.667 8.335-4.335 13.336-4.335M50.336 52.675c-4-3-9.335-5-15.336-5-6 0-11.335 2-15.336 5" stroke="currentColor" stroke-width="2" stroke-miterlimit="10" stroke-linecap="round" stroke-linejoin="round"/></svg><svg fill="none" viewBox="0 0 20 20" id="person" xmlns="http://www.w3.org/2000/svg"><path d="M4 16.6c1.6-1.5 3.7-2.5 6-2.5s4.4.9 6 2.4C14.4 18 12.3 19 10 19s-4.4-.9-6-2.4zM2 14c-.6-1.2-1-2.6-1-4 0-5 4-9 9-9s9 4 9 9c0 1.4-.4 2.8-1 4" stroke="currentColor" stroke-width="1.5" stroke-linecap="round" stroke-linejoin="round"/><path d="M10 11a3 3 0 100-6 3 3 0 000 6z" stroke="currentColor" stroke-width="1.5" stroke-linecap="round" stroke-linejoin="round"/></svg><svg fill="none" viewBox="0 0 371 14" id="review-line" xmlns="http://www.w3.org/2000/svg"><path d="M1.5 1H196v10.5L211.5 1h158" stroke="url(#azpaint0_linear_104_626)" stroke-width="2" stroke-linecap="round"/><defs><linearGradient id="azpaint0_linear_104_626" x1="1" y1="1" x2="370" y2="1" gradientUnits="userSpaceOnUse"><stop stop-color="currentColor" stop-opacity="0"/><stop offset=".508" stop-color="currentColor"/><stop offset="1" stop-color="currentColor" stop-opacity="0"/></linearGradient></defs></svg><svg fill="none" viewBox="0 0 22 22" id="search" xmlns="http://www.w3.org/2000/svg"><path d="M10.067 18.467a8.4 8.4 0 100-16.8 8.4 8.4 0 000 16.8zM20.333 20.333l-4.4-4.4" stroke="currentColor" stroke-width="2" stroke-linecap="round" stroke-linejoin="round"/></svg><svg fill="none" viewBox="0 0 31 31" id="search-2" xmlns="http://www.w3.org/2000/svg"><path d="M11.917 22.308c5.937 0 10.75-4.813 10.75-10.75S17.854.809 11.917.809s-10.75 4.813-10.75 10.75c0 5.938 4.813 10.75 10.75 10.75zM19.442 19.263l10.391 10.57" stroke="currentColor" stroke-width="1.5" stroke-linecap="round" stroke-linejoin="round"/><path d="M8.333 11.917H15.5M11.917 15.5V8.333" stroke="currentColor" stroke-width="1.5" stroke-miterlimit="10" stroke-linecap="round" stroke-linejoin="round"/></svg><svg fill="none" viewBox="0 0 18 20" id="shield" xmlns="http://www.w3.org/2000/svg"><path d="M17 8.875c0 4.5-3.4 8.8-8 9.8-4.6-1-8-5.3-8-9.8v-3.6c0-.8.5-1.5 1.2-1.9l5-2c1.1-.5 2.4-.5 3.5 0l5 2c.8.3 1.2 1 1.2 1.9v3.6h.1z" stroke="currentColor" stroke-width="1.5" stroke-miterlimit="10" stroke-linecap="round" stroke-linejoin="round"/><path d="M12.3 7.775l-3.8 3.8-2.2-2.3" stroke="currentColor" stroke-width="1.5" stroke-linecap="round" stroke-linejoin="round"/></svg><svg viewBox="0 0 24 24" id="telegramm" xmlns="http://www.w3.org/2000/svg"><circle cx="12" cy="12" r="12"/><path d="M5.61 12.225l2.76 1.028 1.075 3.46c.047.234.327.281.514.14l1.543-1.262c.14-.14.374-.14.561 0l2.76 2.01c.186.141.467.048.514-.186l2.057-9.82c.047-.234-.187-.467-.42-.374L5.61 11.617c-.28.093-.28.514 0 .607zm3.695.514l5.424-3.32c.093-.047.187.093.093.14l-4.442 4.162c-.14.14-.28.327-.28.56l-.14 1.123c0 .14-.235.187-.281 0l-.562-2.057c-.14-.234-.046-.515.188-.608z" fill="#fff"/></svg><svg viewBox="0 0 24 24" id="whatsapp" xmlns="http://www.w3.org/2000/svg"><circle cx="12" cy="12" r="12"/><path d="M16.756 7.237A6.257 6.257 0 0012.322 5.4c-3.468 0-6.278 2.8-6.278 6.256 0 1.094.307 2.188.834 3.106L6 18l3.337-.875a6.42 6.42 0 002.985.744c3.468 0 6.278-2.8 6.278-6.256-.044-1.62-.659-3.194-1.844-4.376zm-1.405 6.65c-.132.35-.746.7-1.053.744a2.461 2.461 0 01-.966-.043c-.22-.088-.527-.175-.878-.35-1.58-.657-2.59-2.232-2.678-2.363-.088-.088-.659-.831-.659-1.619 0-.787.395-1.137.527-1.312.132-.175.307-.175.439-.175h.307c.088 0 .22-.044.351.262.132.306.44 1.094.483 1.138a.278.278 0 010 .262.915.915 0 01-.175.263c-.088.087-.176.218-.22.262-.088.088-.175.175-.088.306.088.175.396.657.879 1.094.614.525 1.097.7 1.273.788.175.087.263.043.35-.044.089-.088.396-.438.484-.612.088-.175.22-.132.351-.088.132.044.922.438 1.054.525.175.087.263.131.307.175.044.131.044.438-.088.787z" fill="#fff"/></svg></svg>